<svg width="96" height="96" viewBox="0 0 96 96" fill="none" xmlns="http://www.w3.org/2000/svg">
<rect width="96" height="96" rx="24" fill="#08080A"/>
<path d="M47 80C29.3453 80 15 65.6419 15 48C15 30.3581 29.3582 16 47 16C64.6419 16 79 30.3581 79 48C79 65.6419 64.6419 80 47 80ZM47 18.5626C30.7747 18.5626 17.5755 31.7617 17.5755 47.9871C17.5755 64.2125 30.7747 77.4117 47 77.4117C63.2254 77.4117 76.4246 64.2125 76.4246 47.9871C76.4246 31.7617 63.2254 18.5626 47 18.5626Z" fill="white"/>
<path d="M36.144 63.5903V32.3887H47.0511C49.2274 32.3887 51.0173 32.7621 52.4338 33.509C53.8503 34.2559 54.8934 35.2603 55.5887 36.5094C56.2841 37.7585 56.6189 39.1492 56.6189 40.6816C56.6189 42.0209 56.3871 43.1283 55.9107 44.004C55.4342 44.8797 54.8161 45.5621 54.0563 46.0772C53.2966 46.5923 52.4596 46.9658 51.571 47.2104V47.5195C52.524 47.5839 53.4897 47.9186 54.4555 48.5239C55.4213 49.1291 56.2326 50.0048 56.8765 51.1509C57.5203 52.297 57.8552 53.6748 57.8552 55.3231C57.8552 56.9714 57.4946 58.2977 56.7863 59.5468C56.0781 60.7959 54.9577 61.7875 53.4125 62.5215C51.8801 63.2555 49.8841 63.6161 47.4245 63.6161H36.144V63.5903ZM39.9171 46.1029H46.9224C48.0556 46.1029 49.0857 45.8841 50.0129 45.4334C50.9272 44.9827 51.6612 44.3516 52.202 43.5404C52.7429 42.7291 53.0133 41.7762 53.0133 40.6816C53.0133 39.3167 52.5368 38.1448 51.5839 37.179C50.631 36.2132 49.1115 35.7367 47.0382 35.7367H39.9042V46.1029H39.9171ZM39.9171 60.2422H47.4117C49.8841 60.2422 51.6354 59.7658 52.6785 58.8C53.7215 57.8342 54.2366 56.6752 54.2366 55.2973C54.2366 54.2414 53.9662 53.2628 53.4254 52.3613C52.8845 51.4599 52.1247 50.7388 51.1203 50.198C50.1288 49.6571 48.9441 49.3867 47.5791 49.3867H39.9042V60.2293L39.9171 60.2422Z" fill="white"/>
<path d="M79.4755 29.0575C78.5741 29.0575 77.7242 28.8902 76.9387 28.5553C76.1532 28.2205 75.4578 27.744 74.8526 27.1517C74.2474 26.5593 73.7838 25.864 73.449 25.0656C73.1142 24.2801 72.9468 23.4302 72.9468 22.5288C72.9468 21.6274 73.1142 20.7774 73.449 19.9919C73.7838 19.2064 74.2474 18.511 74.8526 17.9058C75.4578 17.3006 76.1403 16.837 76.9387 16.5022C77.7371 16.1673 78.5741 16 79.4755 16C80.3769 16 81.2268 16.1673 82.0124 16.5022C82.7979 16.837 83.4932 17.3006 84.0985 17.9058C84.7037 18.511 85.1673 19.1935 85.5021 19.9919C85.8369 20.7774 86.0043 21.6274 86.0043 22.5288C86.0043 23.4302 85.8369 24.2801 85.5021 25.0656C85.1673 25.8511 84.6908 26.5465 84.0985 27.1517C83.5061 27.7569 82.8107 28.2205 82.0124 28.5553C81.2268 28.8902 80.3769 29.0575 79.4755 29.0575ZM79.4755 28.5296C80.583 28.5296 81.6003 28.2591 82.5017 27.7183C83.416 27.1774 84.1371 26.4563 84.678 25.542C85.2188 24.6277 85.4892 23.6233 85.4892 22.5159C85.4892 21.4085 85.2188 20.3911 84.678 19.4897C84.1371 18.5754 83.416 17.8543 82.5017 17.3134C81.5874 16.7726 80.583 16.5022 79.4755 16.5022C78.3681 16.5022 77.3637 16.7726 76.4494 17.3134C75.5351 17.8543 74.814 18.5754 74.2731 19.4897C73.7323 20.404 73.4619 21.4085 73.4619 22.5159C73.4619 23.6233 73.7323 24.6277 74.2731 25.542C74.814 26.4563 75.5351 27.1774 76.4494 27.7183C77.3637 28.2591 78.3681 28.5296 79.4755 28.5296ZM77.4023 25.4648V19.4382H79.9778C80.3898 19.4382 80.7375 19.5155 81.0208 19.67C81.3041 19.8245 81.523 20.0434 81.6776 20.301C81.8321 20.5585 81.8965 20.8805 81.8965 21.2282C81.8965 21.5759 81.8192 21.8849 81.6776 22.1682C81.5359 22.4515 81.3041 22.6575 81.0208 22.8249C80.7375 22.9795 80.3898 23.0696 79.9778 23.0696H77.6727V22.5416H79.9649C80.4413 22.5416 80.789 22.4257 81.0337 22.1811C81.2655 21.9493 81.3943 21.6274 81.3943 21.2282C81.3943 20.829 81.2784 20.507 81.0337 20.2881C80.8019 20.0692 80.4413 19.9533 79.9649 19.9533H77.9303V25.4519H77.4023V25.4648ZM80.6731 22.7606L82.154 25.4648H81.5488L80.0936 22.7606H80.6603H80.6731Z" fill="white"/>
</svg>
