<svg width="96" height="96" viewBox="0 0 96 96" fill="none" xmlns="http://www.w3.org/2000/svg">
<rect width="96" height="96" rx="24" fill="url(#paint0_radial_621_84)"/>
<path d="M48 80C30.3453 80 16 65.6419 16 48C16 30.3581 30.3582 16 48 16C65.6419 16 80 30.3581 80 48C80 65.6419 65.6419 80 48 80ZM48 18.5626C31.7747 18.5626 18.5755 31.7617 18.5755 47.9871C18.5755 64.2125 31.7747 77.4117 48 77.4117C64.2254 77.4117 77.4246 64.2125 77.4246 47.9871C77.4246 31.7617 64.2254 18.5626 48 18.5626Z" fill="#09090B"/>
<path d="M37.1445 63.5903V32.3887H48.0516C50.2278 32.3887 52.0178 32.7621 53.4343 33.509C54.8508 34.2559 55.8939 35.2603 56.5892 36.5094C57.2846 37.7585 57.6194 39.1492 57.6194 40.6816C57.6194 42.0209 57.3876 43.1283 56.9112 44.004C56.4347 44.8797 55.8166 45.5621 55.0568 46.0772C54.2971 46.5923 53.4601 46.9658 52.5715 47.2104V47.5195C53.5244 47.5839 54.4902 47.9186 55.456 48.5239C56.4218 49.1291 57.2331 50.0048 57.877 51.1509C58.5208 52.297 58.8556 53.6748 58.8556 55.3231C58.8556 56.9714 58.4951 58.2977 57.7868 59.5468C57.0786 60.7959 55.9582 61.7875 54.413 62.5215C52.8806 63.2555 50.8846 63.6161 48.425 63.6161H37.1445V63.5903ZM40.9176 46.1029H47.9228C49.056 46.1029 50.0862 45.8841 51.0134 45.4334C51.9277 44.9827 52.6617 44.3516 53.2025 43.5404C53.7433 42.7291 54.0138 41.7762 54.0138 40.6816C54.0138 39.3167 53.5373 38.1448 52.5844 37.179C51.6315 36.2132 50.112 35.7367 48.0387 35.7367H40.9047V46.1029H40.9176ZM40.9176 60.2422H48.4121C50.8846 60.2422 52.6359 59.7658 53.6789 58.8C54.722 57.8342 55.2371 56.6752 55.2371 55.2973C55.2371 54.2414 54.9667 53.2628 54.4259 52.3613C53.885 51.4599 53.1252 50.7388 52.1208 50.198C51.1293 49.6571 49.9445 49.3867 48.5796 49.3867H40.9047V60.2293L40.9176 60.2422Z" fill="#09090B"/>
<path d="M80.4755 29.0575C79.5741 29.0575 78.7242 28.8902 77.9387 28.5553C77.1532 28.2205 76.4578 27.744 75.8526 27.1517C75.2474 26.5593 74.7838 25.864 74.449 25.0656C74.1142 24.2801 73.9468 23.4302 73.9468 22.5288C73.9468 21.6274 74.1142 20.7774 74.449 19.9919C74.7838 19.2064 75.2474 18.511 75.8526 17.9058C76.4578 17.3006 77.1403 16.837 77.9387 16.5022C78.7371 16.1673 79.5741 16 80.4755 16C81.3769 16 82.2268 16.1673 83.0124 16.5022C83.7979 16.837 84.4932 17.3006 85.0985 17.9058C85.7037 18.511 86.1673 19.1935 86.5021 19.9919C86.8369 20.7774 87.0043 21.6274 87.0043 22.5288C87.0043 23.4302 86.8369 24.2801 86.5021 25.0656C86.1673 25.8511 85.6908 26.5465 85.0985 27.1517C84.5061 27.7569 83.8107 28.2205 83.0124 28.5553C82.2268 28.8902 81.3769 29.0575 80.4755 29.0575ZM80.4755 28.5296C81.583 28.5296 82.6003 28.2591 83.5017 27.7183C84.416 27.1774 85.1371 26.4563 85.678 25.542C86.2188 24.6277 86.4892 23.6233 86.4892 22.5159C86.4892 21.4085 86.2188 20.3911 85.678 19.4897C85.1371 18.5754 84.416 17.8543 83.5017 17.3134C82.5874 16.7726 81.583 16.5022 80.4755 16.5022C79.3681 16.5022 78.3637 16.7726 77.4494 17.3134C76.5351 17.8543 75.814 18.5754 75.2731 19.4897C74.7323 20.404 74.4619 21.4085 74.4619 22.5159C74.4619 23.6233 74.7323 24.6277 75.2731 25.542C75.814 26.4563 76.5351 27.1774 77.4494 27.7183C78.3637 28.2591 79.3681 28.5296 80.4755 28.5296ZM78.4023 25.4648V19.4382H80.9778C81.3898 19.4382 81.7375 19.5155 82.0208 19.67C82.3041 19.8245 82.523 20.0434 82.6776 20.301C82.8321 20.5585 82.8965 20.8805 82.8965 21.2282C82.8965 21.5759 82.8192 21.8849 82.6776 22.1682C82.5359 22.4515 82.3041 22.6575 82.0208 22.8249C81.7375 22.9795 81.3898 23.0696 80.9778 23.0696H78.6727V22.5416H80.9649C81.4413 22.5416 81.789 22.4257 82.0337 22.1811C82.2655 21.9493 82.3943 21.6274 82.3943 21.2282C82.3943 20.829 82.2784 20.507 82.0337 20.2881C81.8019 20.0692 81.4413 19.9533 80.9649 19.9533H78.9303V25.4519H78.4023V25.4648ZM81.6731 22.7606L83.154 25.4648H82.5488L81.0937 22.7606H81.6603H81.6731Z" fill="#09090B"/>
<defs>
<radialGradient id="paint0_radial_621_84" cx="0" cy="0" r="1" gradientUnits="userSpaceOnUse" gradientTransform="translate(-4.64 -36.16) rotate(63.0556) scale(194.56 233.091)">
<stop offset="0.24" stop-color="#F72121"/>
<stop offset="0.71" stop-color="#FF9500"/>
<stop offset="1" stop-color="#F0D047"/>
</radialGradient>
</defs>
</svg>
